# xmcd
#
# Track frame offsets:
#	150
#	17577
#	36752
#	52667
#	65312
#	81459
#	107019
#	119321
#	136361
#	156056
#	172641
#	190093
#
# Disc length: 2904 seconds
#
# Revision: 3
# Processed by: cddbd v1.5.2PL0 Copyright (c) Steve Scherf et al.
# Submitted via: audiograbber 1.83.01
#
DISCID=8b0b560c
DTITLE=k.d. lang - Invincible Summer
DYEAR=2000
DGENRE=Country
TTITLE0=The Consequences Of Falling
TTITLE1=Summerfling
TTITLE2=Suddenly
TTITLE3=It's Happening With You
TTITLE4=Extraordinary Thing
TTITLE5=Love's Great Ocean
TTITLE6=Simple
TTITLE7=What Better Said
TTITLE8=When We Collide
TTITLE9=Curiosity
TTITLE10=Only Love
TTITLE11=Love's Great Ocean (Howie B Remix)
EXTD=
EXTT0=
EXTT1=
EXTT2=
EXTT3=
EXTT4=
EXTT5=
EXTT6=
EXTT7=
EXTT8=
EXTT9=
EXTT10=
EXTT11=
PLAYORDER=
